# xmcd
#
# Track frame offsets:
# 150
# 14577
# 53279
# 68841
# 92663
# 108862
# 134314
# 147702
# 161865
# 184360
# 203895
# 221205
# 244120
# 267161
# 285321
#
# Disc length: 4129 seconds
#
#
# Revision: 0
# Processed by: cddbd v1.5.2PL0 Copyright (c) Steve Scherf et al.
# Submitted via: FreeRIP 2.945 
#
DISCID=e3101f0f
DTITLE=Peter Madcat and Big Joe Manfra - Live in Rio
DYEAR=2004
DGENRE=Blues
TTITLE0=Off the Wall
TTITLE1=Baby Changed the Lock
TTITLE2=Key to the Highway
TTITLE3=Help Me
TTITLE4=Fishing Blues
TTITLE5=Hoodoo Man Blues
TTITLE6=Georgie Buck
TTITLE7=Polly Wolly Doodle
TTITLE8=Highway 61
TTITLE9=Take Five
TTITLE10=Swinging in Mind
TTITLE11=Mellow Down Easy
TTITLE12=Hit the Road Jack
TTITLE13=Checkin' up on my Baby
TTITLE14=Sweet Home Chicago
EXTD=Gravado ao vivo entre 30 e 31 \nde Outubro de 2004.
EXTT0=
EXTT1=
EXTT2=
EXTT3=
EXTT4=
EXTT5=
EXTT6=
EXTT7=
EXTT8=
EXTT9=
EXTT10=
EXTT11=
EXTT12=
EXTT13=
EXTT14=
PLAYORDER=
